<?xml version="1.0" encoding="UTF-8"?>
<svg id="Capa_1" data-name="Capa 1" xmlns="http://www.w3.org/2000/svg" width="557.94" height="623.5" xmlns:xlink="http://www.w3.org/1999/xlink" viewBox="0 0 557.94 623.5">
  <defs>
    <style>
      .cls-1 {
        fill: #fff;
      }

      .cls-2 {
        clip-path: url(#clippath-1);
      }

      .cls-3 {
        clip-path: url(#clippath);
      }

      .cls-4 {
        fill: none;
      }
    </style>
    <clipPath id="clippath">
      <rect class="cls-4" y="119.09" width="432.66" height="385.32"/>
    </clipPath>
    <clipPath id="clippath-1">
      <rect class="cls-4" x="43.94" y=".25" width="514" height="622.75"/>
    </clipPath>
  </defs>
  <g class="cls-3">
    <path class="cls-1" d="m324.22,172.48v126.61h11.01c5.88,0,10.83-1.94,14.86-5.83,4.04-3.82,7.23-11.05,9.58-21.69,2.42-10.64,3.63-26.24,3.63-46.79,0-11.74-.84-21.46-2.53-29.17-1.61-7.71-4.18-13.51-7.71-17.39-3.45-3.82-8.11-5.73-13.98-5.73h-14.86Zm-61.65,331.93V130.1c0-4.04.62-6.86,1.87-8.48,1.32-1.69,4.37-2.53,9.14-2.53h39.64c5.5,0,8.7,1.84,9.58,5.5.95,3.67,1.43,5.5,1.43,5.5v363.31c0,3.67-.92,6.24-2.75,7.71-1.83,1.47-6.97,2.38-15.41,2.75-8.44.37-22.94.55-43.49.55Zm65.5-148.62h-47.34c-6.24,0-9.91-1.1-11.01-3.3-1.1-2.2-1.65-6.24-1.65-12.11v-210.28s.18-1.83.55-5.5c.37-3.67,3.49-5.5,9.36-5.5h47.34c23.12,0,42.64,3.19,58.57,9.58,16,6.46,28.11,17.84,36.33,34.13,8.29,16.37,12.44,39.6,12.44,69.69,0,24.96-3.05,45.39-9.14,61.32-6.02,16-14.09,28.48-24.22,37.43-10.05,9.03-21.25,15.38-33.58,19.05-12.25,3.67-24.8,5.5-37.65,5.5Zm-161.84,148.62l2.75-104.59c.37-15.05,1.03-29.47,1.98-43.27.88-13.72,1.95-26.75,3.19-39.08,1.32-12.26,2.54-23.45,3.64-33.58,1.1-10.05,2.2-18.68,3.3-25.87,1.1-7.12,2.02-12.7,2.75-16.73s1.1-6.05,1.1-6.05l-18.16-12.66v-92.48c1.47-4.04,2.86-6.86,4.18-8.48,1.25-1.69,3.52-2.53,6.83-2.53h51.74v374.32c0,3.67-.92,6.24-2.75,7.71-1.83,1.47-7.04,2.38-15.63,2.75-8.66.37-23.63.55-44.92.55Zm-166.24,0V130.1c0-5.5,1.1-8.74,3.3-9.69,2.2-.88,4.77-1.32,7.71-1.32h46.79l3.3,104.59-17.62,11.56s.37,1.91,1.1,5.72c.73,3.89,1.65,9.39,2.75,16.52,1.1,7.19,2.31,15.82,3.63,25.87,1.25,10.13,2.53,21.25,3.85,33.36,1.25,12.11,2.35,25.14,3.3,39.08.88,13.95,1.32,28.44,1.32,43.49l1.65,94.13c0,3.67-1.1,6.24-3.3,7.71-2.2,1.47-7.6,2.38-16.18,2.75-8.66.37-22.53.55-41.61.55Zm123.3-91.93h-25.32l-25.87-77.07c-1.47-4.4-3.38-11.12-5.73-20.15-2.42-8.95-5.1-19.12-8.04-30.49-2.94-11.38-5.87-22.86-8.81-34.46-2.93-11.52-5.58-22.24-7.93-32.15-2.42-9.91-4.37-17.91-5.84-24-1.46-6.02-2.2-9.03-2.2-9.03l24.22-66.06,43.49,135.41c2.93,8.44,5.32,16.15,7.16,23.12,1.83,6.97,3.3,12.84,4.4,17.61,1.1,4.77,1.95,8.44,2.53,11.01.52,2.57.77,3.86.77,3.86,0,0,.18-1.29.55-3.86.37-2.57,1.1-6.35,2.2-11.34,1.1-4.91,2.5-10.68,4.18-17.28,1.62-6.61,3.71-13.95,6.28-22.02l37.43-125.51,28.62,56.15s-.73,2.94-2.2,8.81c-1.47,5.87-3.38,13.65-5.72,23.34-2.42,9.76-5.1,20.4-8.04,31.92-2.93,11.6-5.95,22.97-9.03,34.13-3.16,11.23-5.91,21.32-8.26,30.28-2.42,9.03-4.55,15.93-6.38,20.7l-26.42,73.21c-.73,2.57-2.75,3.86-6.05,3.86Z"/>
  </g>
  <g class="cls-2">
    <path class="cls-1" d="m245.61,623.5c-76.68,0-146.9-27.68-201.2-73.61h28.11c48.58,35.37,108.39,56.23,173.08,56.23,64.69,0,124.5-20.87,173.08-56.23h28.12c-54.3,45.92-124.52,73.61-201.19,73.61Zm311.75-311.75c0,67.9-21.71,130.73-58.56,181.93v-31.66c26.16-43.99,41.19-95.37,41.19-150.27s-15.03-106.28-41.19-150.27v-31.66c36.86,51.2,58.56,114.03,58.56,181.93ZM245.61,0c76.68,0,146.89,27.68,201.19,73.6h-28.12c-48.58-35.37-108.39-56.23-173.08-56.23s-124.5,20.86-173.08,56.23h-28.11C98.71,27.69,168.93,0,245.61,0Z"/>
  </g>
</svg>